<svg width="252" height="100" viewBox="0 0 252 100" fill="none" xmlns="http://www.w3.org/2000/svg">
<path d="M35.7652 86.4C32.4852 86.4 28.4052 84.44 23.5252 80.52C20.0852 79.96 17.1252 79.2 14.6452 78.24C12.2452 77.36 10.2452 76.28 8.64516 75C6.40516 73.08 4.44516 70.52 2.76516 67.32C1.08516 64.12 0.245156 61.04 0.245156 58.08C0.245156 55.84 0.765156 53.84 1.80516 52.08C4.20516 47.84 7.24516 45.72 10.9252 45.72C13.7252 45.72 15.3652 48.08 15.8452 52.8C16.4052 57.2 16.8452 60.72 17.1652 63.36C17.5652 65.92 17.8852 67.6 18.1252 68.4C19.3252 72.32 21.3652 75.64 24.2452 78.36C27.6052 79.08 31.2452 79.44 35.1652 79.44C43.8052 79.44 52.0852 77.8 60.0052 74.52C63.3652 73.08 66.6452 71.2 69.8452 68.88C73.0452 66.56 75.6852 64 77.7652 61.2C79.8452 58.4 80.8852 55.68 80.8852 53.04C80.8852 49.28 77.5652 46.36 70.9252 44.28L49.8052 39.48C45.4852 38.52 42.0052 36.84 39.3652 34.44C36.8052 31.96 35.5252 29.16 35.5252 26.04C35.5252 21.24 38.5252 16.44 44.5252 11.64C47.5652 9.16 51.1252 7.08 55.2052 5.39999C59.2852 3.63999 63.5652 2.31999 68.0452 1.44C72.6052 0.479999 76.9652 0 81.1252 0C87.0452 0 92.0852 0.919998 96.2452 2.75999C100.485 4.59999 103.125 7.27999 104.165 10.8C104.405 11.6 104.525 12.48 104.525 13.44C104.525 18.32 102.085 21.72 97.2052 23.64C94.2452 24.84 91.7252 25.44 89.6452 25.44C88.3652 25.44 87.3652 25.2 86.6452 24.72C86.4852 24.56 86.4052 24.36 86.4052 24.12C86.4052 23.56 87.5252 23.24 89.7652 23.16C91.1252 23.08 92.2452 22.96 93.1252 22.8C94.0052 22.64 94.6452 22.48 95.0452 22.32C98.0852 20.72 99.6052 18.36 99.6052 15.24C99.6052 13.64 99.1652 11.96 98.2852 10.2C95.8052 5.64 89.6052 3.36 79.6852 3.36C76.0852 3.36 72.3652 3.76 68.5252 4.56C64.6852 5.28 61.0452 6.4 57.6052 7.92C54.1652 9.36 51.2452 11.2 48.8452 13.44C44.6852 17.28 42.6052 20.72 42.6052 23.76C42.6052 26.08 43.7252 28.16 45.9652 30C48.2852 31.76 51.7652 33.08 56.4052 33.96L70.5652 36.6C76.0052 37.64 80.4052 39.2 83.7652 41.28C87.1252 43.28 88.8052 46.36 88.8052 50.52C88.8052 54.2 87.8852 57.64 86.0452 60.84C84.2052 64.04 81.7252 66.92 78.6052 69.48C75.5652 71.96 72.0852 74.04 68.1652 75.72C59.2852 79.64 48.8052 81.6 36.7252 81.6C35.2052 81.6 33.6852 81.56 32.1652 81.48C30.6452 81.4 29.1652 81.28 27.7252 81.12C28.8452 81.76 30.2452 82.4 31.9252 83.04C33.6852 83.68 35.6852 84.28 37.9252 84.84C38.1652 84.92 38.2852 85.08 38.2852 85.32C38.2852 86.04 37.4452 86.4 35.7652 86.4ZM19.9252 77.16C17.7652 74.76 16.0852 72.28 14.8852 69.72C13.1252 65.72 11.8052 60.8 10.9252 54.96C10.2852 50.72 9.60516 48.6 8.88516 48.6C8.24516 48.6 7.36516 49.08 6.24516 50.04C5.20516 51 4.68516 53.04 4.68516 56.16C4.68516 62.24 6.84516 67.52 11.1652 72C13.3252 74.24 16.2452 75.96 19.9252 77.16ZM95.1708 75.24C94.3708 75.24 93.2908 74.8 91.9308 73.92C90.4908 73.04 89.7708 72.2 89.7708 71.4C89.7708 69.48 92.1308 63.32 96.8508 52.92C101.891 41.8 105.611 36.24 108.011 36.24C108.971 36.24 109.771 36.68 110.411 37.56C111.131 38.44 111.491 39.16 111.491 39.72C111.491 39.96 109.291 43.96 104.891 51.72C100.571 59.56 98.4508 64.28 98.5308 65.88C100.611 63.4 102.651 60.96 104.651 58.56C106.651 56.16 108.651 53.72 110.651 51.24C118.411 42.28 123.491 37.8 125.891 37.8C126.771 37.8 127.611 38.2 128.411 39C129.291 39.72 129.731 40.44 129.731 41.16C129.731 41.64 128.731 43.16 126.731 45.72C124.411 48.92 122.411 51.96 120.731 54.84C119.131 57.72 118.331 60.64 118.331 63.6C118.331 68.64 120.011 71.16 123.371 71.16C126.331 71.16 128.811 70.4 130.811 68.88C132.891 67.36 135.011 64.6 137.171 60.6C138.771 57.64 139.971 54.88 140.771 52.32C141.651 49.68 142.091 47.36 142.091 45.36C142.091 43.6 141.931 42.12 141.611 40.92C141.371 39.72 141.011 38.72 140.531 37.92C140.371 37.76 140.291 37.56 140.291 37.32C140.291 36.84 140.531 36.6 141.011 36.6C141.491 36.6 142.011 36.76 142.571 37.08C143.211 37.32 143.811 38.04 144.371 39.24C144.771 39.88 145.091 41.08 145.331 42.84C145.651 44.6 145.811 46.04 145.811 47.16C145.811 52.92 143.371 58.72 138.491 64.56C133.371 70.8 127.851 73.92 121.931 73.92C119.931 73.92 118.211 73.28 116.771 72C115.411 70.64 114.371 69 113.651 67.08C112.931 65.08 112.571 63.12 112.571 61.2C112.571 58.48 113.211 55.04 114.491 50.88C113.451 51.92 112.091 53.4 110.411 55.32C108.811 57.16 106.971 59.4 104.891 62.04C102.571 65 100.571 67.56 98.8908 69.72C97.2908 71.88 96.0508 73.72 95.1708 75.24ZM172.477 33.72C171.117 33.72 169.917 33.28 168.877 32.4C167.917 31.52 167.437 30.52 167.437 29.4C167.437 27.16 168.957 26.04 171.997 26.04C173.117 26.04 174.237 26.44 175.357 27.24C176.477 27.96 177.037 28.88 177.037 30C177.037 30.96 176.517 31.84 175.477 32.64C174.437 33.36 173.437 33.72 172.477 33.72ZM150.277 76.32C148.517 76.32 147.077 75.76 145.957 74.64C144.757 73.44 144.157 71.36 144.157 68.4C144.157 66.72 144.557 64.8 145.357 62.64C146.077 60.4 146.997 58.16 148.117 55.92C149.317 53.68 150.477 51.68 151.597 49.92C156.077 42.64 159.757 38.96 162.637 38.88C163.357 38.88 164.237 39.2 165.277 39.84C166.317 40.4 166.837 41.04 166.837 41.76C166.837 41.76 163.797 45.68 157.717 53.52C151.717 61.28 148.717 66.8 148.717 70.08C148.717 72.64 149.717 73.92 151.717 73.92C152.997 73.92 154.637 73.4 156.637 72.36C158.717 71.24 160.877 69.84 163.117 68.16C165.357 66.48 167.477 64.68 169.477 62.76C171.557 60.84 173.237 59.08 174.517 57.48C175.317 56.44 175.997 55.72 176.557 55.32C177.197 54.92 177.597 54.72 177.757 54.72C178.077 54.72 178.237 54.96 178.237 55.44C178.237 55.84 177.757 56.64 176.797 57.84C175.917 59.04 174.677 60.44 173.077 62.04C171.157 63.96 169.037 66.04 166.717 68.28C164.397 70.52 161.877 72.44 159.157 74.04C156.437 75.56 153.477 76.32 150.277 76.32ZM152.627 99.6C150.227 99.6 148.187 98.6 146.507 96.6C144.827 94.6 143.947 92.44 143.867 90.12C144.107 89.16 144.467 88.68 144.947 88.68C145.427 88.68 145.707 89.28 145.787 90.48C145.867 91.76 146.507 93 147.707 94.2C148.907 95.4 150.107 96 151.307 96C158.107 96 164.307 91.8 169.907 83.4C171.427 81.16 173.307 77.92 175.547 73.68C177.787 69.36 180.267 63.96 182.987 57.48L189.467 41.88C181.467 41.8 177.467 40.84 177.467 39C177.467 38.12 177.867 37.44 178.667 36.96C179.467 36.4 180.107 36.12 180.587 36.12C180.667 36.12 181.667 36.16 183.587 36.24C185.507 36.24 188.267 36.28 191.867 36.36C199.707 18.92 206.907 10.2 213.467 10.2C216.027 10.2 218.547 11.4 221.027 13.8C221.667 14.44 221.987 15.28 221.987 16.32C221.987 18.8 221.267 20.04 219.827 20.04C219.427 20.04 219.027 19.72 218.627 19.08C218.307 18.52 217.787 18.08 217.067 17.76C216.347 17.36 215.667 17.16 215.027 17.16C212.627 17.16 210.507 18.08 208.667 19.92C206.907 21.68 205.227 24 203.627 26.88C202.107 29.76 200.467 32.92 198.707 36.36H200.147C208.867 36.36 214.667 36.24 217.547 36C217.867 36.08 218.027 36.24 218.027 36.48C218.027 37.12 215.187 38 209.507 39.12C207.267 39.44 205.067 39.8 202.907 40.2C200.747 40.6 198.547 41 196.307 41.4C195.267 43.64 193.987 46.32 192.467 49.44C190.947 52.48 189.227 55.88 187.307 59.64C183.547 66.68 180.467 72.28 178.067 76.44C175.667 80.6 173.987 83.36 173.027 84.72C166.067 94.64 159.267 99.6 152.627 99.6ZM209.53 75.72C206.97 75.72 204.93 75.12 203.41 73.92C201.97 72.64 201.25 70.4 201.25 67.2C201.25 65.36 201.81 63.04 202.93 60.24C204.05 57.36 205.45 54.28 207.13 51C208.81 47.72 210.49 44.48 212.17 41.28C211.13 41.52 210.21 41.64 209.41 41.64C207.01 41.64 205.81 40.72 205.81 38.88C205.81 38 206.13 37.32 206.77 36.84C207.49 36.36 208.13 36.08 208.69 36C208.69 36 208.77 36 208.93 36C209.17 36 209.45 35.96 209.77 35.88H216.73C218.17 34.04 219.65 32.08 221.17 30C223.33 27.28 225.05 25.68 226.33 25.2H226.69C227.25 25.2 228.05 25.48 229.09 26.04C230.37 26.76 231.01 27.48 231.01 28.2C231.01 29.24 229.09 31.92 225.25 36.24C225.97 36.32 227.01 36.36 228.37 36.36C229.73 36.36 231.41 36.36 233.41 36.36C234.37 36.36 235.73 36.36 237.49 36.36C239.33 36.36 241.21 36.36 243.13 36.36C245.13 36.28 246.85 36.24 248.29 36.24C249.73 36.16 250.53 36.12 250.69 36.12C250.93 36.2 251.05 36.32 251.05 36.48C251.05 37.2 246.33 38.16 236.89 39.36C231.53 40.08 227.41 40.64 224.53 41.04C221.73 41.44 220.21 41.68 219.97 41.76C218.85 42.72 217.49 44.36 215.89 46.68C214.29 49 212.69 51.6 211.09 54.48C209.49 57.36 208.13 60.12 207.01 62.76C205.97 65.32 205.45 67.32 205.45 68.76C205.45 70.04 205.93 71.12 206.89 72C207.85 72.8 209.41 73.2 211.57 73.2C213.01 73.2 214.73 72.88 216.73 72.24C218.73 71.6 220.61 70.88 222.37 70.08C224.21 69.2 225.53 68.52 226.33 68.04C228.41 66.76 230.69 65.08 233.17 63C235.73 60.84 238.25 58.4 240.73 55.68C241.85 54.56 242.61 54 243.01 54C243.25 54 243.37 54.16 243.37 54.48C243.37 55.12 242.77 56.16 241.57 57.6C239.65 59.92 237.49 62.16 235.09 64.32C232.77 66.4 230.17 68.32 227.29 70.08C224.01 72.08 220.85 73.52 217.81 74.4C214.85 75.28 212.09 75.72 209.53 75.72Z" fill="white"/>
</svg>
