<svg width="600" height="112" viewBox="0 0 600 112" fill="none" xmlns="http://www.w3.org/2000/svg">
<path d="M0.490412 25.9091V2.36363H94.0416V25.9091H61.6666V110H32.8654V25.9091H0.490412ZM119.413 110H87.8793L123.408 2.36363H163.351L198.879 110H167.345L143.8 32.0057H142.959L119.413 110ZM113.527 67.5341H172.811V89.3977H113.527V67.5341ZM193.847 2.36363H226.432L247.455 46.0909H248.296L269.319 2.36363H301.904L262.381 76.1534V110H233.37V76.1534L193.847 2.36363ZM311.43 110V2.36363H340.651V86.4545H384.168V110H311.43ZM496.062 56.1818C496.062 68.1648 493.732 78.2732 489.072 86.5071C484.412 94.706 478.122 100.925 470.204 105.165C462.285 109.369 453.456 111.472 443.715 111.472C433.905 111.472 425.04 109.352 417.121 105.112C409.238 100.838 402.966 94.6009 398.306 86.402C393.681 78.1681 391.369 68.0947 391.369 56.1818C391.369 44.1989 393.681 34.108 398.306 25.9091C402.966 17.6752 409.238 11.456 417.121 7.25142C425.04 3.01183 433.905 0.892041 443.715 0.892041C453.456 0.892041 462.285 3.01183 470.204 7.25142C478.122 11.456 484.412 17.6752 489.072 25.9091C493.732 34.108 496.062 44.1989 496.062 56.1818ZM465.999 56.1818C465.999 49.7348 465.141 44.304 463.424 39.8892C461.742 35.4394 459.237 32.0758 455.908 29.7983C452.615 27.4858 448.55 26.3295 443.715 26.3295C438.88 26.3295 434.798 27.4858 431.469 29.7983C428.176 32.0758 425.671 35.4394 423.954 39.8892C422.272 44.304 421.431 49.7348 421.431 56.1818C421.431 62.6288 422.272 68.0772 423.954 72.527C425.671 76.9418 428.176 80.3054 431.469 82.6179C434.798 84.8954 438.88 86.0341 443.715 86.0341C448.55 86.0341 452.615 84.8954 455.908 82.6179C459.237 80.3054 461.742 76.9418 463.424 72.527C465.141 68.0772 465.999 62.6288 465.999 56.1818ZM509.582 110V2.36363H556.042C564.031 2.36363 571.021 3.81771 577.012 6.72585C583.004 9.63399 587.664 13.821 590.993 19.2869C594.321 24.7528 595.985 31.3049 595.985 38.9432C595.985 46.6515 594.269 53.151 590.835 58.4418C587.436 63.7325 582.654 67.7268 576.487 70.4247C570.355 73.1226 563.19 74.4716 554.991 74.4716H527.241V51.767H549.105C552.538 51.767 555.464 51.3466 557.882 50.5057C560.334 49.6297 562.209 48.2457 563.505 46.3537C564.837 44.4616 565.502 41.9915 565.502 38.9432C565.502 35.8598 564.837 33.3546 563.505 31.4276C562.209 29.4654 560.334 28.0289 557.882 27.1179C555.464 26.1719 552.538 25.6989 549.105 25.6989H538.804V110H509.582ZM572.65 60.5966L599.559 110H567.815L541.537 60.5966H572.65Z" fill="#242445"/>
</svg>
