<svg width="158" height="32" viewBox="0 0 158 32" fill="none" xmlns="http://www.w3.org/2000/svg">
<path opacity="0.9" d="M5.88077 28.434C4.0901 28.434 2.84343 27.958 2.14077 27.006C1.4381 26.054 1.08677 24.6487 1.08677 22.79C1.08677 20.2967 1.8121 17.8487 3.26277 15.446C1.58543 14.3807 0.746766 12.8053 0.746766 10.72C0.746766 8.204 1.85743 5.97133 4.07877 4.022C6.5721 1.82333 9.79077 0.723998 13.7348 0.723998C14.9814 0.723998 16.0808 0.803332 17.0328 0.961999C17.9848 1.098 18.8914 1.31333 19.7528 1.608C20.6368 1.90267 21.5774 2.27667 22.5748 2.73C23.5721 3.18333 24.7508 3.72733 26.1108 4.362C29.4201 5.858 31.8454 6.606 33.3868 6.606C34.1348 6.606 34.7808 6.436 35.3248 6.096C35.8688 5.73333 36.1408 5.29133 36.1408 4.77C36.1408 4.43 35.9934 4.124 35.6988 3.852C35.5401 3.62533 35.4608 3.46667 35.4608 3.376C35.4608 3.33067 35.4834 3.308 35.5288 3.308C35.7101 3.308 35.9594 3.50067 36.2768 3.886C36.5941 4.27133 36.7528 4.69067 36.7528 5.144C36.7528 5.64267 36.5601 6.07333 36.1748 6.436C35.8121 6.79867 35.3361 7.082 34.7468 7.286C34.1801 7.46733 33.5908 7.558 32.9788 7.558C31.2788 7.558 28.7741 6.79867 25.4648 5.28C24.2408 4.71333 23.1868 4.23733 22.3028 3.852C21.4188 3.444 20.6028 3.11533 19.8548 2.866C19.1068 2.594 18.3588 2.40133 17.6108 2.288C16.8854 2.152 16.0694 2.084 15.1628 2.084C10.4708 2.084 6.7761 3.60267 4.07877 6.64C3.7841 6.95733 3.50077 7.422 3.22877 8.034C2.95677 8.62333 2.7301 9.24667 2.54877 9.904C2.3901 10.5613 2.31077 11.1507 2.31077 11.672C2.31077 12.9867 2.77543 14.0067 3.70477 14.732C4.4301 13.6667 5.26877 12.7147 6.22077 11.876C7.19543 11.0147 8.2381 10.3347 9.34877 9.836C10.4594 9.33733 11.6041 9.088 12.7828 9.088C14.8228 9.088 15.8428 9.88133 15.8428 11.468C15.8428 13.372 14.7208 15.446 12.4768 17.69C10.2554 19.9113 8.19277 21.022 6.28877 21.022C5.06477 21.022 4.45277 20.5007 4.45277 19.458C4.45277 19.0953 4.54343 18.778 4.72477 18.506C4.92877 18.234 5.16677 18.132 5.43877 18.2C5.43877 18.3133 5.42743 18.4607 5.40477 18.642C5.3821 18.8007 5.37077 18.914 5.37077 18.982C5.37077 19.322 5.8921 19.492 6.93477 19.492C8.4761 19.492 10.1308 18.676 11.8988 17.044C12.7601 16.228 13.4968 15.3213 14.1088 14.324C14.7434 13.3267 15.0608 12.3973 15.0608 11.536C15.0608 10.516 14.4034 10.006 13.0888 10.006C12.1368 10.006 11.1734 10.2667 10.1988 10.788C9.24677 11.3093 8.3401 11.9893 7.47877 12.828C6.61743 13.644 5.83543 14.5167 5.13277 15.446C5.2461 15.4913 5.39343 15.5367 5.57477 15.582C5.7561 15.6273 5.9601 15.6727 6.18677 15.718L8.22677 15.786C9.2241 15.8313 9.72277 15.9447 9.72277 16.126C9.72277 16.4433 9.26943 16.602 8.36277 16.602C7.95477 16.602 7.5581 16.5907 7.17277 16.568C6.8101 16.5453 6.45877 16.5113 6.11877 16.466C5.86943 16.4207 5.6201 16.3753 5.37077 16.33C5.1441 16.262 4.91743 16.1827 4.69077 16.092C2.94543 18.7667 2.07277 21.226 2.07277 23.47C2.07277 26.3713 3.19477 27.822 5.43877 27.822C7.97743 27.822 10.6181 26.054 13.3608 22.518L20.0248 12.59C22.4501 8.986 24.6148 7.12733 26.5188 7.014L27.8108 7.32C28.2188 7.524 28.4228 7.932 28.4228 8.544C28.4228 8.86133 28.3094 9.02 28.0828 9.02C28.0148 9.02 27.8448 8.99733 27.5728 8.952C27.3234 8.884 27.1308 8.85 26.9948 8.85C25.3854 8.85 23.3794 10.5387 20.9768 13.916L14.2108 23.368C11.3094 26.7453 8.53277 28.434 5.88077 28.434ZM24.8913 25.17C24.3473 25.17 23.8033 24.9773 23.2593 24.592C22.7153 24.2067 22.4093 23.7533 22.3413 23.232C22.1146 21.4867 23.2139 19.4127 25.6393 17.01C28.0419 14.6073 30.2066 13.406 32.1333 13.406C32.6546 13.406 33.0626 13.5307 33.3573 13.78C33.5159 13.9387 33.6293 14.154 33.6973 14.426C33.7879 14.698 33.8559 14.834 33.9013 14.834C33.9919 14.834 34.0713 14.8227 34.1393 14.8C34.2073 14.7547 34.2866 14.732 34.3773 14.732C34.6493 14.732 34.8873 14.834 35.0913 15.038C35.2953 15.242 35.4086 15.4233 35.4313 15.582C35.4539 15.6273 34.7286 16.7493 33.2553 18.948C31.7819 21.1013 31.1133 22.5633 31.2493 23.334C31.3626 23.8553 31.6119 24.116 31.9973 24.116C33.1759 24.116 35.3293 22.1667 38.4573 18.268C38.5253 18.1773 38.5933 18.132 38.6613 18.132C38.7746 18.132 38.8313 18.2113 38.8313 18.37C38.8313 18.5513 38.7293 18.778 38.5253 19.05C35.6466 22.926 33.4366 24.864 31.8953 24.864C31.6913 24.864 31.4986 24.83 31.3173 24.762C30.3199 24.3767 29.8213 23.6287 29.8213 22.518C29.8213 22.1327 29.8666 21.7473 29.9573 21.362L27.8493 23.402C27.2146 24.0367 26.6366 24.49 26.1153 24.762C25.6166 25.034 25.2086 25.17 24.8913 25.17ZM24.5853 24.422C25.8999 24.422 27.6906 22.9827 29.9573 20.104L33.5613 15.14C33.3799 14.8227 33.0853 14.664 32.6773 14.664C31.2946 14.664 29.4246 15.7747 27.0673 17.996C24.6193 20.2627 23.5199 22.1327 23.7693 23.606C23.8826 24.15 24.1546 24.422 24.5853 24.422ZM37.407 31.97C36.6817 31.97 36.047 31.664 35.503 31.052C34.959 30.4173 34.6983 29.7147 34.721 28.944C34.993 29.284 35.3557 29.6807 35.809 30.134C36.3983 30.7007 36.9763 30.984 37.543 30.984C38.835 30.984 40.229 29.9527 41.725 27.89C42.2463 27.1647 42.779 26.3147 43.323 25.34C43.8897 24.388 44.4223 23.3227 44.921 22.144L46.213 19.016L41.215 22.926C39.6737 24.1273 38.4383 24.728 37.509 24.728C37.0103 24.728 36.6137 24.5467 36.319 24.184C36.0243 23.8213 35.877 23.4473 35.877 23.062C35.877 22.0873 36.7157 20.4893 38.393 18.268C40.0703 16.024 41.3283 14.902 42.167 14.902C42.8697 14.902 43.221 15.1627 43.221 15.684C43.221 15.888 42.2123 17.0667 40.195 19.22C38.2003 21.3507 37.203 22.79 37.203 23.538C37.203 23.8327 37.3957 23.98 37.781 23.98C38.5063 23.98 40.0817 23.0393 42.507 21.158C43.5043 20.3647 44.3883 19.6393 45.159 18.982C45.9297 18.3247 46.5757 17.7353 47.097 17.214C47.2783 16.9873 47.4597 16.772 47.641 16.568C47.8223 16.3413 47.9923 16.1147 48.151 15.888C48.5817 15.3893 49.0123 15.14 49.443 15.14C50.055 15.14 50.361 15.3893 50.361 15.888C50.361 15.9787 49.885 16.7267 48.933 18.132C48.4343 18.9027 48.0377 19.5033 47.743 19.934C47.4483 20.342 47.2783 20.6027 47.233 20.716C46.5303 22.076 45.4537 24.0593 44.003 26.666C41.8043 30.202 39.6057 31.97 37.407 31.97ZM51.793 25.068C51.1357 25.068 50.5237 24.9093 49.957 24.592C49.3903 24.252 49.107 23.6967 49.107 22.926C49.107 21.8607 49.481 20.5913 50.229 19.118C50.9997 17.6447 51.8723 16.1147 52.847 14.528C55.499 10.2213 57.3803 8.068 58.491 8.068C58.7177 8.068 58.9443 8.15867 59.171 8.34C59.4203 8.49867 59.5563 8.68 59.579 8.884L57.199 12.08C56.2697 13.3267 55.431 14.4827 54.683 15.548C53.935 16.5907 53.289 17.5313 52.745 18.37C52.473 18.8007 52.167 19.288 51.827 19.832C51.487 20.376 51.181 20.9427 50.909 21.532C50.6597 22.0987 50.535 22.6767 50.535 23.266C50.535 23.538 50.6143 23.7873 50.773 24.014C50.9317 24.218 51.215 24.32 51.623 24.32C52.3483 24.32 53.3003 23.9347 54.479 23.164C55.6577 22.3707 56.825 21.2827 57.981 19.9C58.0943 19.764 58.219 19.6393 58.355 19.526C58.491 19.4127 58.6043 19.356 58.695 19.356C58.8083 19.356 58.865 19.424 58.865 19.56C58.865 19.628 58.7857 19.764 58.627 19.968C58.491 20.1493 58.3777 20.2967 58.287 20.41L57.471 21.328C57.0177 21.8267 56.4737 22.3707 55.839 22.96C55.227 23.5493 54.5697 24.048 53.867 24.456C53.187 24.864 52.4957 25.068 51.793 25.068ZM58.9386 25.068C58.3719 25.068 57.9299 24.8073 57.6126 24.286C57.2952 23.742 57.1366 23.2207 57.1366 22.722C57.1366 21.362 58.1226 19.458 60.0946 17.01C62.0892 14.5393 63.6986 13.304 64.9226 13.304C66.0786 13.304 66.6566 13.916 66.6566 15.14C66.6566 15.3213 66.6339 15.514 66.5886 15.718C66.5659 15.922 66.5319 16.1373 66.4866 16.364C66.5319 16.432 66.6452 16.466 66.8266 16.466C67.4386 16.466 68.1639 16.2507 69.0026 15.82C68.9799 16.2053 68.0846 16.7607 66.3166 17.486C66.5659 18.234 65.8179 19.662 64.0726 21.77C62.2819 23.9687 60.7519 25.068 59.4826 25.068H58.9386ZM59.5506 24.048C60.5252 24.048 61.7719 23.1527 63.2906 21.362C64.7639 19.6167 65.5006 18.3587 65.5006 17.588C65.1379 17.384 64.6846 16.8627 64.1406 16.024C63.3699 16.024 62.2592 16.9533 60.8086 18.812C59.3806 20.6253 58.6892 22.0193 58.7346 22.994C58.7572 23.6967 59.0292 24.048 59.5506 24.048ZM73.9751 25.17C73.0004 25.17 72.3317 24.9207 71.9691 24.422C71.6064 23.9007 71.4251 23.2093 71.4251 22.348C71.4251 21.396 71.7197 20.2627 72.3091 18.948C72.5357 18.4267 72.7737 17.962 73.0231 17.554C73.2724 17.1233 73.5331 16.7267 73.8051 16.364C73.7144 16.3867 73.6351 16.398 73.5671 16.398C73.4991 16.398 73.4311 16.398 73.3631 16.398C72.8191 16.398 72.3657 16.0127 72.0031 15.242L69.4871 18.506C68.1497 20.2513 67.3337 21.124 67.0391 21.124C66.9257 21.124 66.8691 21.0787 66.8691 20.988C66.8691 20.8747 66.9257 20.7273 67.0391 20.546C67.1071 20.41 67.2431 20.2287 67.4471 20.002C68.3084 19.0047 69.1017 18.0187 69.8271 17.044C70.5524 16.0693 71.1531 15.1173 71.6291 14.188C72.1504 12.216 72.8077 11.23 73.6011 11.23C74.1224 11.23 74.3831 11.468 74.3831 11.944C74.3831 12.3747 74.0997 12.9413 73.5331 13.644C72.9891 14.3467 72.7171 14.7093 72.7171 14.732C72.7171 15.208 73.0684 15.446 73.7711 15.446C74.1791 15.446 74.6324 15.2987 75.1311 15.004L76.0151 14.46C76.0604 14.4373 76.1284 14.426 76.2191 14.426C76.4911 14.426 76.7291 14.5393 76.9331 14.766C77.1371 14.9927 77.2051 15.1967 77.1371 15.378L74.7911 18.336C73.3404 20.1947 72.6151 21.6907 72.6151 22.824C72.6151 23.844 73.1137 24.354 74.1111 24.354C74.7911 24.354 75.5164 24.15 76.2871 23.742C77.0804 23.334 77.8397 22.8353 78.5651 22.246C79.3131 21.634 79.9364 21.0447 80.4351 20.478L81.2511 19.526C81.2964 19.4807 81.3531 19.424 81.4211 19.356C81.4891 19.288 81.5457 19.254 81.5911 19.254C81.7497 19.254 81.8291 19.3333 81.8291 19.492C81.8291 19.5373 81.8064 19.6167 81.7611 19.73C81.7157 19.8433 81.6364 19.968 81.5231 20.104L80.4351 21.328C79.9137 21.9173 79.2677 22.518 78.4971 23.13C77.7491 23.7193 76.9671 24.2067 76.1511 24.592C75.3577 24.9773 74.6324 25.17 73.9751 25.17ZM96.6462 28.23C95.7168 28.23 94.5608 27.6747 93.1782 26.564C92.2035 26.4053 91.3648 26.19 90.6622 25.918C89.9822 25.6687 89.4155 25.3627 88.9622 25C88.3275 24.456 87.7722 23.7307 87.2962 22.824C86.8202 21.9173 86.5822 21.0447 86.5822 20.206C86.5822 19.5713 86.7295 19.0047 87.0242 18.506C87.7042 17.3047 88.5655 16.704 89.6082 16.704C90.4015 16.704 90.8662 17.3727 91.0022 18.71C91.1608 19.9567 91.2855 20.954 91.3762 21.702C91.4895 22.4273 91.5802 22.9033 91.6482 23.13C91.9882 24.2407 92.5662 25.1813 93.3822 25.952C94.3342 26.156 95.3655 26.258 96.4762 26.258C98.9242 26.258 101.27 25.7933 103.514 24.864C104.466 24.456 105.395 23.9233 106.302 23.266C107.209 22.6087 107.957 21.8833 108.546 21.09C109.135 20.2967 109.43 19.526 109.43 18.778C109.43 17.7127 108.489 16.8853 106.608 16.296L100.624 14.936C99.4002 14.664 98.4142 14.188 97.6662 13.508C96.9408 12.8053 96.5782 12.012 96.5782 11.128C96.5782 9.768 97.4282 8.408 99.1282 7.048C99.9895 6.34533 100.998 5.756 102.154 5.28C103.31 4.78133 104.523 4.40733 105.792 4.158C107.084 3.886 108.319 3.75 109.498 3.75C111.175 3.75 112.603 4.01067 113.782 4.532C114.983 5.05333 115.731 5.81267 116.026 6.81C116.094 7.03667 116.128 7.286 116.128 7.558C116.128 8.94067 115.437 9.904 114.054 10.448C113.215 10.788 112.501 10.958 111.912 10.958C111.549 10.958 111.266 10.89 111.062 10.754C111.017 10.7087 110.994 10.652 110.994 10.584C110.994 10.4253 111.311 10.3347 111.946 10.312C112.331 10.2893 112.649 10.2553 112.898 10.21C113.147 10.1647 113.329 10.1193 113.442 10.074C114.303 9.62067 114.734 8.952 114.734 8.068C114.734 7.61467 114.609 7.13867 114.36 6.64C113.657 5.348 111.901 4.702 109.09 4.702C108.07 4.702 107.016 4.81533 105.928 5.042C104.84 5.246 103.809 5.56333 102.834 5.994C101.859 6.402 101.032 6.92333 100.352 7.558C99.1735 8.646 98.5842 9.62067 98.5842 10.482C98.5842 11.1393 98.9015 11.7287 99.5362 12.25C100.193 12.7487 101.179 13.1227 102.494 13.372L106.506 14.12C108.047 14.4147 109.294 14.8567 110.246 15.446C111.198 16.0127 111.674 16.8853 111.674 18.064C111.674 19.1067 111.413 20.0813 110.892 20.988C110.371 21.8947 109.668 22.7107 108.784 23.436C107.923 24.1387 106.937 24.728 105.826 25.204C103.31 26.3147 100.341 26.87 96.9182 26.87C96.4875 26.87 96.0568 26.8587 95.6262 26.836C95.1955 26.8133 94.7762 26.7793 94.3682 26.734C94.6855 26.9153 95.0822 27.0967 95.5582 27.278C96.0568 27.4593 96.6235 27.6293 97.2582 27.788C97.3262 27.8107 97.3602 27.856 97.3602 27.924C97.3602 28.128 97.1222 28.23 96.6462 28.23ZM92.1582 25.612C91.5462 24.932 91.0702 24.2293 90.7302 23.504C90.2315 22.3707 89.8575 20.9767 89.6082 19.322C89.4268 18.1207 89.2342 17.52 89.0302 17.52C88.8488 17.52 88.5995 17.656 88.2822 17.928C87.9875 18.2 87.8402 18.778 87.8402 19.662C87.8402 21.3847 88.4522 22.8807 89.6762 24.15C90.2882 24.7847 91.1155 25.272 92.1582 25.612ZM113.478 25.068C113.251 25.068 112.945 24.9433 112.56 24.694C112.152 24.4447 111.948 24.2067 111.948 23.98C111.948 23.436 112.616 21.6907 113.954 18.744C115.382 15.5933 116.436 14.018 117.116 14.018C117.388 14.018 117.614 14.1427 117.796 14.392C118 14.6413 118.102 14.8453 118.102 15.004C118.102 15.072 117.478 16.2053 116.232 18.404C115.008 20.6253 114.407 21.9627 114.43 22.416C115.019 21.7133 115.597 21.022 116.164 20.342C116.73 19.662 117.297 18.9707 117.864 18.268C120.062 15.7293 121.502 14.46 122.182 14.46C122.431 14.46 122.669 14.5733 122.896 14.8C123.145 15.004 123.27 15.208 123.27 15.412C123.27 15.548 122.986 15.9787 122.42 16.704C121.762 17.6107 121.196 18.472 120.72 19.288C120.266 20.104 120.04 20.9313 120.04 21.77C120.04 23.198 120.516 23.912 121.468 23.912C122.306 23.912 123.009 23.6967 123.576 23.266C124.165 22.8353 124.766 22.0533 125.378 20.92C125.831 20.0813 126.171 19.2993 126.398 18.574C126.647 17.826 126.772 17.1687 126.772 16.602C126.772 16.1033 126.726 15.684 126.636 15.344C126.568 15.004 126.466 14.7207 126.33 14.494C126.284 14.4487 126.262 14.392 126.262 14.324C126.262 14.188 126.33 14.12 126.466 14.12C126.602 14.12 126.749 14.1653 126.908 14.256C127.089 14.324 127.259 14.528 127.418 14.868C127.531 15.0493 127.622 15.3893 127.69 15.888C127.78 16.3867 127.826 16.7947 127.826 17.112C127.826 18.744 127.134 20.3873 125.752 22.042C124.301 23.81 122.737 24.694 121.06 24.694C120.493 24.694 120.006 24.5127 119.598 24.15C119.212 23.7647 118.918 23.3 118.714 22.756C118.51 22.1893 118.408 21.634 118.408 21.09C118.408 20.3193 118.589 19.3447 118.952 18.166C118.657 18.4607 118.272 18.88 117.796 19.424C117.342 19.9453 116.821 20.58 116.232 21.328C115.574 22.1667 115.008 22.892 114.532 23.504C114.078 24.116 113.727 24.6373 113.478 25.068ZM135.381 13.304C134.996 13.304 134.656 13.1793 134.361 12.93C134.089 12.6807 133.953 12.3973 133.953 12.08C133.953 11.4453 134.384 11.128 135.245 11.128C135.563 11.128 135.88 11.2413 136.197 11.468C136.515 11.672 136.673 11.9327 136.673 12.25C136.673 12.522 136.526 12.7713 136.231 12.998C135.937 13.202 135.653 13.304 135.381 13.304ZM129.091 25.374C128.593 25.374 128.185 25.2153 127.867 24.898C127.527 24.558 127.357 23.9687 127.357 23.13C127.357 22.654 127.471 22.11 127.697 21.498C127.901 20.8633 128.162 20.2287 128.479 19.594C128.819 18.9593 129.148 18.3927 129.465 17.894C130.735 15.8313 131.777 14.7887 132.593 14.766C132.797 14.766 133.047 14.8567 133.341 15.038C133.636 15.1967 133.783 15.378 133.783 15.582C133.783 15.582 132.922 16.6927 131.199 18.914C129.499 21.1127 128.649 22.6767 128.649 23.606C128.649 24.3313 128.933 24.694 129.499 24.694C129.862 24.694 130.327 24.5467 130.893 24.252C131.483 23.9347 132.095 23.538 132.729 23.062C133.364 22.586 133.965 22.076 134.531 21.532C135.121 20.988 135.597 20.4893 135.959 20.036C136.186 19.7413 136.379 19.5373 136.537 19.424C136.719 19.3107 136.832 19.254 136.877 19.254C136.968 19.254 137.013 19.322 137.013 19.458C137.013 19.5713 136.877 19.798 136.605 20.138C136.356 20.478 136.005 20.8747 135.551 21.328C135.007 21.872 134.407 22.4613 133.749 23.096C133.092 23.7307 132.378 24.2747 131.607 24.728C130.837 25.1587 129.998 25.374 129.091 25.374ZM129.757 31.97C129.077 31.97 128.499 31.6867 128.023 31.12C127.547 30.5533 127.298 29.9413 127.275 29.284C127.343 29.012 127.445 28.876 127.581 28.876C127.717 28.876 127.796 29.046 127.819 29.386C127.842 29.7487 128.023 30.1 128.363 30.44C128.703 30.78 129.043 30.95 129.383 30.95C131.31 30.95 133.066 29.76 134.653 27.38C135.084 26.7453 135.616 25.8273 136.251 24.626C136.886 23.402 137.588 21.872 138.359 20.036L140.195 15.616C137.928 15.5933 136.795 15.3213 136.795 14.8C136.795 14.5507 136.908 14.358 137.135 14.222C137.362 14.0633 137.543 13.984 137.679 13.984C137.702 13.984 137.985 13.9953 138.529 14.018C139.073 14.018 139.855 14.0293 140.875 14.052C143.096 9.11067 145.136 6.64 146.995 6.64C147.72 6.64 148.434 6.98 149.137 7.66C149.318 7.84133 149.409 8.07933 149.409 8.374C149.409 9.07667 149.205 9.428 148.797 9.428C148.684 9.428 148.57 9.33733 148.457 9.156C148.366 8.99733 148.219 8.87267 148.015 8.782C147.811 8.66867 147.618 8.612 147.437 8.612C146.757 8.612 146.156 8.87267 145.635 9.394C145.136 9.89267 144.66 10.55 144.207 11.366C143.776 12.182 143.312 13.0773 142.813 14.052H143.221C145.692 14.052 147.335 14.018 148.151 13.95C148.242 13.9727 148.287 14.018 148.287 14.086C148.287 14.2673 147.482 14.5167 145.873 14.834C145.238 14.9247 144.615 15.0267 144.003 15.14C143.391 15.2533 142.768 15.3667 142.133 15.48C141.838 16.1147 141.476 16.874 141.045 17.758C140.614 18.6193 140.127 19.5827 139.583 20.648C138.518 22.6427 137.645 24.2293 136.965 25.408C136.285 26.5867 135.809 27.3687 135.537 27.754C133.565 30.5647 131.638 31.97 129.757 31.97ZM145.879 25.204C145.154 25.204 144.576 25.034 144.145 24.694C143.737 24.3313 143.533 23.6967 143.533 22.79C143.533 22.2687 143.692 21.6113 144.009 20.818C144.327 20.002 144.723 19.1293 145.199 18.2C145.675 17.2707 146.151 16.3527 146.627 15.446C146.333 15.514 146.072 15.548 145.845 15.548C145.165 15.548 144.825 15.2873 144.825 14.766C144.825 14.5167 144.916 14.324 145.097 14.188C145.301 14.052 145.483 13.9727 145.641 13.95C145.641 13.95 145.664 13.95 145.709 13.95C145.777 13.95 145.857 13.9387 145.947 13.916H147.919C148.327 13.3947 148.747 12.8393 149.177 12.25C149.789 11.4793 150.277 11.026 150.639 10.89H150.741C150.9 10.89 151.127 10.9693 151.421 11.128C151.784 11.332 151.965 11.536 151.965 11.74C151.965 12.0347 151.421 12.794 150.333 14.018C150.537 14.0407 150.832 14.052 151.217 14.052C151.603 14.052 152.079 14.052 152.645 14.052C152.917 14.052 153.303 14.052 153.801 14.052C154.323 14.052 154.855 14.052 155.399 14.052C155.966 14.0293 156.453 14.018 156.861 14.018C157.269 13.9953 157.496 13.984 157.541 13.984C157.609 14.0067 157.643 14.0407 157.643 14.086C157.643 14.29 156.306 14.562 153.631 14.902C152.113 15.106 150.945 15.2647 150.129 15.378C149.336 15.4913 148.905 15.5593 148.837 15.582C148.52 15.854 148.135 16.3187 147.681 16.976C147.228 17.6333 146.775 18.37 146.321 19.186C145.868 20.002 145.483 20.784 145.165 21.532C144.871 22.2573 144.723 22.824 144.723 23.232C144.723 23.5947 144.859 23.9007 145.131 24.15C145.403 24.3767 145.845 24.49 146.457 24.49C146.865 24.49 147.353 24.3993 147.919 24.218C148.486 24.0367 149.019 23.8327 149.517 23.606C150.039 23.3567 150.413 23.164 150.639 23.028C151.229 22.6653 151.875 22.1893 152.577 21.6C153.303 20.988 154.017 20.2967 154.719 19.526C155.037 19.2087 155.252 19.05 155.365 19.05C155.433 19.05 155.467 19.0953 155.467 19.186C155.467 19.3673 155.297 19.662 154.957 20.07C154.413 20.7273 153.801 21.362 153.121 21.974C152.464 22.5633 151.727 23.1073 150.911 23.606C149.982 24.1727 149.087 24.5807 148.225 24.83C147.387 25.0793 146.605 25.204 145.879 25.204Z" fill="white"/>
</svg>
